<svg xmlns="http://www.w3.org/2000/svg" width="16.566" height="18.932" viewBox="0 0 16.566 18.932">
  <path id="bell-light" d="M8.278,17.749a1.185,1.185,0,0,1-1.183-1.184H5.912a2.367,2.367,0,1,0,4.733,0H9.461A1.185,1.185,0,0,1,8.278,17.749ZM16.02,12.38C14.987,11.4,14.2,10.366,14.2,6.874A5.769,5.769,0,0,0,8.87,1.241V.592a.592.592,0,0,0-1.183,0v.649A5.769,5.769,0,0,0,2.36,6.874c0,3.491-.791,4.522-1.825,5.506A1.721,1.721,0,0,0,.12,14.275,1.764,1.764,0,0,0,1.77,15.382H14.786a1.765,1.765,0,0,0,1.651-1.108A1.721,1.721,0,0,0,16.02,12.38ZM14.786,14.2H1.77a.561.561,0,0,1-.419-.962c1.289-1.227,2.192-2.6,2.192-6.363A4.623,4.623,0,0,1,8.278,2.367a4.623,4.623,0,0,1,4.735,4.507c0,3.748.9,5.129,2.192,6.363A.562.562,0,0,1,14.786,14.2Z" transform="translate(0.005)"/>
</svg>
