<svg xmlns="http://www.w3.org/2000/svg" width="18.192" height="15.92" viewBox="0 0 18.192 15.92">
  <path id="home-light" d="M50.14,39.018l-2.168-1.771V34.5a.213.213,0,0,0-.213-.213h-.711a.213.213,0,0,0-.213.213v1.824l-4.968-4.055a1.143,1.143,0,0,0-1.435,0l-8.273,6.753a.284.284,0,0,0-.041.4l.359.441a.284.284,0,0,0,.4.042l1.452-1.186V47.35a.569.569,0,0,0,.569.569h4.549a.569.569,0,0,0,.569-.569V42.8l2.274.011v4.551a.569.569,0,0,0,.569.569l4.549-.012a.569.569,0,0,0,.569-.569V38.715L49.424,39.9a.284.284,0,0,0,.4-.041l.359-.441a.284.284,0,0,0-.043-.4Zm-3.309,7.768h0l-3.411.011V42.242a.57.57,0,0,0-.567-.569l-3.411-.01a.569.569,0,0,0-.57.569v4.554H35.463v-9l5.686-4.64,5.686,4.64Z" transform="translate(-32.054 -32.013)"/>
</svg>
