<svg xmlns="http://www.w3.org/2000/svg" width="19.995" height="20.772" viewBox="0 0 19.995 20.772">
  <path id="cog-light" d="M36.767,20.2,35.4,19.41a8.173,8.173,0,0,0,0-2.048l1.366-.788a1,1,0,0,0,.463-1.152,10.368,10.368,0,0,0-2.41-4.171,1,1,0,0,0-1.233-.179l-1.364.787a8.13,8.13,0,0,0-1.773-1.025V9.258a1.006,1.006,0,0,0-.774-.979,10.459,10.459,0,0,0-4.806,0,1.006,1.006,0,0,0-.774.979v1.575a8.129,8.129,0,0,0-1.773,1.025l-1.364-.787a1,1,0,0,0-1.233.179,10.369,10.369,0,0,0-2.41,4.171,1,1,0,0,0,.463,1.152l1.366.788a8.174,8.174,0,0,0,0,2.048L17.78,20.2a1,1,0,0,0-.463,1.152,10.369,10.369,0,0,0,2.41,4.171,1,1,0,0,0,1.233.179l1.364-.787A8.128,8.128,0,0,0,24.1,25.938v1.575a1.006,1.006,0,0,0,.774.979,10.459,10.459,0,0,0,4.806,0,1.006,1.006,0,0,0,.774-.979V25.938a8.13,8.13,0,0,0,1.773-1.025l1.364.787a1,1,0,0,0,1.233-.179,10.369,10.369,0,0,0,2.41-4.171,1,1,0,0,0-.463-1.152Zm-2.742,4.207-1.939-1.12a7.236,7.236,0,0,1-2.975,1.72v2.24a9.094,9.094,0,0,1-3.674,0v-2.24a7.237,7.237,0,0,1-2.975-1.72l-1.939,1.12a9.046,9.046,0,0,1-1.84-3.181l1.94-1.12a7.3,7.3,0,0,1,0-3.437l-1.94-1.12a9.052,9.052,0,0,1,1.84-3.182l1.939,1.121a7.225,7.225,0,0,1,2.975-1.72V9.527a9.079,9.079,0,0,1,3.674,0v2.24a7.225,7.225,0,0,1,2.975,1.72l1.939-1.121a9.052,9.052,0,0,1,1.84,3.182l-1.94,1.12a7.3,7.3,0,0,1,0,3.437l1.94,1.12A9.046,9.046,0,0,1,34.025,24.406Zm-6.752-10.04a4.02,4.02,0,1,0,4.02,4.02A4.025,4.025,0,0,0,27.273,14.366Zm0,6.7a2.68,2.68,0,1,1,2.68-2.68A2.683,2.683,0,0,1,27.273,21.066Z" transform="translate(-17.276 -8)"/>
</svg>
