<?xml version="1.0" encoding="utf-8"?>
<!-- Generator: Adobe Illustrator 24.3.0, SVG Export Plug-In . SVG Version: 6.00 Build 0)  -->
<svg version="1.1" id="레이어_1" xmlns="http://www.w3.org/2000/svg" xmlns:xlink="http://www.w3.org/1999/xlink" x="0px"
	 y="0px" viewBox="0 0 1080 1080" style="enable-background:new 0 0 1080 1080;" xml:space="preserve">
<style type="text/css">
	.st0{fill:#A5A5A5;}
	.st1{fill:#FFF3BF;}
	.st2{fill:#D89561;}
	.st3{fill:#654037;}
	.st4{fill:none;}
	.st5{fill:#C76C59;}
	.st6{fill:#FFA07D;}
	.st7{fill:#D8613F;}
	.st8{fill:#FFFFFF;stroke:#000000;stroke-width:9;stroke-linecap:round;stroke-linejoin:round;stroke-miterlimit:10;}
	.st9{fill:#FAA57C;}
	.st10{fill:#D86342;}
	.st11{fill:#D89561;stroke:#000000;stroke-width:9;stroke-linecap:round;stroke-linejoin:round;stroke-miterlimit:10;}
	.st12{fill:none;stroke:#000000;stroke-width:9;stroke-linecap:round;stroke-linejoin:round;stroke-miterlimit:10;}
</style>
<g>
	<ellipse class="st0" cx="540.98" cy="831.85" rx="340.63" ry="54.89"/>
	<g>
		<path class="st1" d="M796.56,585.72c0,0,14.26-7.49,41.7,25.66c27.45,33.15,27.09,77.7,18.89,81.98s-48.12-14.97-54.18-21.74
			S796.56,585.72,796.56,585.72z"/>
	</g>
	<path class="st2" d="M423.37,824.18c0,0-16.04,16.04-85.54,8.91s-109.78-33.15-120.83-125.82c-11.05-92.67,39.92-149.7,39.92-149.7
		s-88.4-62.73-39.21-163.6s198.18-117.62,260.55-59.17"/>
	<g>
		<g>
			<path class="st1" d="M256.91,557.56c0,0-50.97,57.03-39.92,149.7s51.33,118.69,120.83,125.82c69.5,7.13,85.54-8.91,85.54-8.91
				l0.4-3.52c-5.06-0.93-10.75-1.44-17.15-1.47c-104.44-0.36-140.44-43.49-157.9-111.92c-17.47-68.44,28.16-160.75,32.79-174.3
				s-8.91-3.92-29.23-4.99c-20.32-1.07-26.38-11.05-26.38-11.05c-2.67-1.93-5.26-3.47-7.77-4.68
				C234.13,541.38,256.91,557.56,256.91,557.56z"/>
		</g>
	</g>
	<path d="M370.87,839.43c-9.55,0-20.64-0.54-33.51-1.86c-39.56-4.06-65.76-13.94-84.96-32.03c-21.69-20.45-34.37-51.5-39.88-97.73
		c-5.83-48.88,5.57-87.86,16.17-111.95c8.29-18.86,17.25-31.65,21.83-37.56c-7.19-5.88-23.12-20.4-35.57-42.49
		c-15.08-26.75-27.55-69.95-1.28-123.81c23.19-47.56,70.14-81.03,128.81-91.83c54.35-10.01,107.56,2.01,138.87,31.35
		c1.81,1.7,1.91,4.55,0.21,6.36c-1.7,1.81-4.55,1.91-6.36,0.21c-29.27-27.43-79.49-38.57-131.08-29.07
		c-55.83,10.28-100.42,41.96-122.35,86.92c-19.66,40.31-19.36,79.05,0.87,115.15c15.24,27.19,36.69,42.66,36.9,42.81
		c1.04,0.74,1.72,1.89,1.86,3.17c0.14,1.27-0.26,2.55-1.12,3.5c-0.12,0.14-12.56,14.25-23.49,39.25
		c-10.06,23-20.88,60.22-15.32,106.92c11.1,93.05,51.24,115.15,116.82,121.88c65.32,6.7,81.82-7.55,81.98-7.69l-0.08,0.07l6.36,6.36
		C425.09,828.82,413,839.43,370.87,839.43z"/>
	<g>
		<path class="st3" d="M334.74,331.7c37.54,13.31,72.48,55.13,73.9,77.94c1.43,22.81,35.17-10.22,35.17-10.22l-9.03-7.37
			c0,0,0.52-30.18-19.35-53.23c-19.86-23.05-42.44-31.6-48.85-36.12c-0.47-0.33-0.75-0.66-0.9-0.97
			c-29.97,2.14-60.55,11.04-87.06,26.95C294.22,325.96,315.19,324.77,334.74,331.7z"/>
		<path class="st3" d="M430.34,308.34l-1.03,5.78c0,0,23.76,22.1,20.91,53.47c-1.5,16.46,11.6,9.82,24.39-0.21l3.65-32.58
			C465.42,322.76,448.9,313.92,430.34,308.34z"/>
		<path class="st3" d="M282.46,409.34c67.96,3.86,86.71,53.8,92.78,82.53c6.07,28.73,20.33-57.76,20.33-57.76
			s-9.98-44.2-74.14-65.58c-45.01-15-74.82-5.91-88.6,0.85c-5.72,7.56-10.81,15.74-15.13,24.58
			c-17.23,35.33-17.57,65.97-10.75,90.89C206.97,484.76,214.53,405.49,282.46,409.34z"/>
		<path class="st4" d="M430.34,308.34l3.01-16.79l-47.76,3.56c0,0-21.8,2.65-19.91,6.63C388.25,300.13,410.47,302.36,430.34,308.34z
			"/>
	</g>
	<path class="st2" d="M384.64,750.63c0,0-39.45-80.32-8.55-186.77c0,0-25.66-132.59,69.86-175.37c0,0,34.32-87.45,103.89-100.75
		c0,0-7.89-86.02,13.97-89.82c21.86-3.8,32.32,59.88,28.51,80.32c0,0,20.44-1.9,34.69,4.75c0,0,6.65-79.01,31.25-78.3
		c24.59,0.71,12.12,82.34,6.77,91.96c0,0,61.66,35.64,74.5,110.5c0,0,92.32,22.1,58.81,167.17c0,0,69.15,83.17,20.2,197.7
		c0,0-3.8,6.18-4.51,7.13c0,0,7.13-14.26,33.03,4.75s30.06,27.8,30.06,39.92c0,0-40.63,27.45-116.2,2.5c0,0-64.51,22.46-155.41,8.91
		"/>
	<path class="st1" d="M814.69,778.16c-0.46,0.58-0.67,0.99-0.67,0.99C814.15,778.97,814.39,778.62,814.69,778.16z"/>
	<g>
		<path class="st5" d="M799.84,585.02l-3.26,3.66c0.01,0.96,0.02,2.14,0.04,3.5c9.21,7.49,50.42,42.54,65.37,81.28
			c-0.49-16.99-6.85-41.69-23.73-62.07C818.44,587.45,805.5,584.7,799.84,585.02z"/>
	</g>
	<g>
		<g>
			<path class="st6" d="M861.99,673.46c-14.96-38.75-56.16-73.79-65.37-81.28c0.04,3.37,0.11,7.87,0.23,13.01
				c17.79,24.24,56.28,76.64,61.38,82.98c0.59,0.73,1.27,0.92,2.03,0.68C861.51,685.28,862.18,679.93,861.99,673.46z"/>
		</g>
	</g>
	<g>
		<path d="M853.97,698.49c-4.41,0-12.25-1.52-26.51-7.73c-10.58-4.61-23.8-11.62-27.84-16.14c-1.7-1.9-4.86-5.44-6.62-48.31
			c-0.84-20.47-0.94-40.38-0.94-40.57l-0.01-2.73l2.42-1.27c1.79-0.94,18.33-8.17,47.26,26.78c23.17,27.99,26.93,62.62,23.85,77.87
			c-1.15,5.68-3.28,9.38-6.34,10.97C858.46,697.76,857.05,698.49,853.97,698.49z M806.42,668.72c2.32,2.45,12.07,8.26,24.08,13.55
			c14.34,6.31,22.54,7.7,24.51,7.12c4.16-4.11,6.3-43.11-20.22-75.13c-17.65-21.32-29.03-24.52-33.71-24.75
			C801.37,625.13,803.38,663.47,806.42,668.72z M854.93,689.46L854.93,689.46L854.93,689.46z"/>
	</g>
	<g>
		<g>
			<path class="st4" d="M814.69,778.16c-0.46,0.58-0.67,0.99-0.67,0.99C814.15,778.97,814.39,778.62,814.69,778.16z"/>
			<path class="st1" d="M812.84,597.01c0.07,0.13,0.14,0.26,0.2,0.39C812.97,597.27,812.9,597.14,812.84,597.01z"/>
			<path class="st1" d="M836.05,688.17c0,0.35,0,0.7,0,1.04C836.05,688.87,836.06,688.52,836.05,688.17z"/>
			<path class="st1" d="M835.79,679.35c0.01,0.12,0.01,0.23,0.02,0.34C835.8,679.58,835.8,679.47,835.79,679.35z"/>
			<path class="st1" d="M835.48,674.63c0.03,0.33,0.06,0.66,0.08,1C835.53,675.29,835.5,674.96,835.48,674.63z"/>
			<path class="st1" d="M813.97,599.17c0.09,0.18,0.18,0.36,0.28,0.54C814.15,599.53,814.06,599.35,813.97,599.17z"/>
			<path class="st1" d="M811.72,594.94c0.01,0.01,0.01,0.03,0.02,0.04C811.74,594.97,811.73,594.96,811.72,594.94z"/>
			<path class="st1" d="M835.11,670.42c0.04,0.39,0.08,0.79,0.12,1.18C835.19,671.2,835.15,670.81,835.11,670.42z"/>
			<path class="st1" d="M835.71,701.11c-0.03,0.55-0.07,1.1-0.11,1.65C835.64,702.21,835.68,701.66,835.71,701.11z"/>
			<path class="st1" d="M808.16,588.73c0.1,0.17,0.2,0.33,0.3,0.5C808.35,589.06,808.26,588.9,808.16,588.73z"/>
			<path class="st1" d="M834.96,710.12c-0.06,0.56-0.12,1.11-0.18,1.67C834.85,711.23,834.9,710.67,834.96,710.12z"/>
			<path class="st1" d="M836.04,692.42c-0.01,0.46-0.02,0.93-0.03,1.4C836.01,693.35,836.03,692.88,836.04,692.42z"/>
			<path class="st1" d="M807.1,586.99c0.12,0.19,0.23,0.38,0.35,0.57C807.33,587.37,807.22,587.18,807.1,586.99z"/>
			<path class="st1" d="M834.41,714.81c-0.07,0.52-0.13,1.03-0.2,1.55C834.28,715.84,834.34,715.32,834.41,714.81z"/>
			<path class="st1" d="M835.92,696.73c-0.02,0.52-0.04,1.04-0.07,1.57C835.88,697.77,835.9,697.25,835.92,696.73z"/>
			<path class="st1" d="M809.32,590.7c0.06,0.1,0.11,0.19,0.17,0.29C809.44,590.9,809.38,590.8,809.32,590.7z"/>
			<path class="st1" d="M834.67,666.39c0.05,0.41,0.1,0.83,0.15,1.24C834.77,667.22,834.72,666.81,834.67,666.39z"/>
			<path class="st1" d="M835.39,705.57c-0.05,0.56-0.09,1.13-0.15,1.7C835.3,706.69,835.35,706.13,835.39,705.57z"/>
			<path class="st1" d="M818.66,608.93c0.08,0.17,0.15,0.34,0.23,0.51C818.82,609.27,818.74,609.1,818.66,608.93z"/>
			<path class="st1" d="M826.65,629.78c0.09,0.28,0.18,0.56,0.27,0.85C826.83,630.35,826.74,630.06,826.65,629.78z"/>
			<path class="st1" d="M827.67,633.04c0.08,0.28,0.17,0.56,0.25,0.84C827.84,633.6,827.75,633.32,827.67,633.04z"/>
			<path class="st1" d="M828.66,636.43c0.07,0.25,0.14,0.5,0.21,0.76C828.8,636.93,828.73,636.68,828.66,636.43z"/>
			<path class="st1" d="M825.62,626.64c0.09,0.26,0.18,0.53,0.27,0.79C825.8,627.17,825.71,626.9,825.62,626.64z"/>
			<path class="st1" d="M824.56,623.59c0.08,0.22,0.16,0.44,0.23,0.66C824.71,624.04,824.64,623.81,824.56,623.59z"/>
			<path class="st1" d="M819.94,611.84c0.03,0.07,0.06,0.15,0.1,0.22C820.01,611.98,819.97,611.91,819.94,611.84z"/>
			<path class="st1" d="M815.11,601.43c0.1,0.21,0.21,0.41,0.31,0.62C815.32,601.84,815.21,601.63,815.11,601.43z"/>
			<path class="st1" d="M832.95,654.96c0.06,0.32,0.11,0.64,0.17,0.96C833.06,655.6,833.01,655.28,832.95,654.96z"/>
			<path class="st1" d="M833.58,658.68c0.06,0.38,0.12,0.76,0.18,1.14C833.7,659.44,833.64,659.06,833.58,658.68z"/>
			<path class="st1" d="M834.16,662.49c0.06,0.41,0.11,0.81,0.17,1.22C834.27,663.3,834.21,662.9,834.16,662.49z"/>
			<path class="st1" d="M832.25,651.31c0.04,0.2,0.08,0.41,0.12,0.62C832.33,651.72,832.29,651.51,832.25,651.31z"/>
			<path class="st1" d="M816.28,603.8c0.1,0.21,0.2,0.42,0.31,0.64C816.48,604.22,816.38,604.01,816.28,603.8z"/>
			<path class="st1" d="M829.65,640.07c0.04,0.16,0.09,0.33,0.13,0.49C829.74,640.39,829.69,640.23,829.65,640.07z"/>
			<path class="st1" d="M817.46,606.28c0.1,0.2,0.19,0.41,0.29,0.62C817.65,606.69,817.55,606.49,817.46,606.28z"/>
			<path class="st1" d="M805.16,583.92c0.12,0.19,0.25,0.38,0.37,0.58C805.41,584.3,805.28,584.11,805.16,583.92z"/>
			<path class="st1" d="M826.73,749.76c-0.21,0.69-0.43,1.38-0.65,2.07C826.3,751.14,826.51,750.45,826.73,749.76z"/>
			<path class="st1" d="M804.27,582.55c0.12,0.19,0.25,0.38,0.37,0.57C804.51,582.92,804.39,582.73,804.27,582.55z"/>
			<path class="st1" d="M828.2,744.83c-0.19,0.68-0.39,1.36-0.59,2.04C827.81,746.19,828,745.51,828.2,744.83z"/>
			<path class="st1" d="M815.68,777.09c0.18-0.16,0.36-0.33,0.57-0.5C816.04,776.76,815.85,776.93,815.68,777.09z"/>
			<path class="st1" d="M800.72,577.43c0.5,0.68,1.07,1.48,1.69,2.38C801.79,578.91,801.22,578.11,800.72,577.43z"/>
			<path class="st1" d="M816.26,776.59c0.21-0.17,0.44-0.34,0.68-0.5C816.7,776.25,816.47,776.42,816.26,776.59z"/>
			<path class="st1" d="M821.3,765.25c-0.22,0.56-0.43,1.11-0.65,1.67C820.87,766.36,821.08,765.8,821.3,765.25z"/>
			<path class="st1" d="M823.32,759.89c-0.24,0.65-0.47,1.3-0.71,1.96C822.85,761.2,823.08,760.55,823.32,759.89z"/>
			<path class="st1" d="M814.69,778.16c0.1-0.13,0.23-0.28,0.36-0.42C814.92,777.88,814.79,778.03,814.69,778.16z"/>
			<path class="st1" d="M803.42,581.28c0.12,0.18,0.25,0.38,0.38,0.57C803.67,581.66,803.54,581.46,803.42,581.28z"/>
			<path class="st1" d="M825.11,754.77c-0.23,0.68-0.46,1.37-0.7,2.05C824.65,756.14,824.88,755.46,825.11,754.77z"/>
			<path class="st1" d="M720.4,413.2c17.59-1.07,51.92,17.11,69.38,65.94s-1.07,91.6-1.07,91.6l11.46,5.94
				c-1.16-1.56-1.83-2.37-1.83-2.37c16.17-70,3.04-111.36-14.88-135.43l-47.14-30.32c0,0-6.62-1.32-16.29-1.5
				C720.21,409.1,720.33,411.14,720.4,413.2C720.4,413.2,720.4,413.2,720.4,413.2z"/>
			<path class="st1" d="M832.71,725.69c-0.01,0.05-0.02,0.11-0.03,0.16C832.68,725.8,832.7,725.75,832.71,725.69z"/>
			<path class="st1" d="M806.11,585.4c0.12,0.19,0.24,0.38,0.36,0.57C806.35,585.78,806.23,585.59,806.11,585.4z"/>
			<path class="st1" d="M829.52,739.96c-0.17,0.65-0.35,1.31-0.52,1.97C829.18,741.27,829.35,740.62,829.52,739.96z"/>
			<path class="st1" d="M833.69,719.83c-0.06,0.38-0.11,0.76-0.17,1.14C833.58,720.59,833.64,720.21,833.69,719.83z"/>
			<path class="st1" d="M815.13,777.64c0.13-0.15,0.28-0.3,0.44-0.45C815.41,777.35,815.26,777.5,815.13,777.64z"/>
			<path class="st1" d="M847.05,783.9c-17.05-12.51-25.95-10.61-30.05-7.86c-9.91,14.62-65.39,36.8-115.61,45.99
				c-50.61,9.27-182.14-6.06-229.9-84.12c-47.76-78.06-31.72-142.57-31.72-142.57s-27.45-73.43-7.49-125.35
				c17.01-44.24,48.5-53.03,57.45-54.66c0.02-1.38,0.07-2.76,0.14-4.13c-15.46,2.43-32.83,9.26-49.04,24.8
				c-43.84,42.06-19.6,119.05-10.34,175.72c9.27,56.67,9.27,77.7,9.27,77.7s28.51,88.04,72,98.38
				c18.16,4.32,41.87,19.52,63.33,35.76l30.41,11.65c90.89,13.54,155.41-8.91,155.41-8.91c75.56,24.95,116.2-2.5,116.2-2.5
				C877.11,811.7,872.95,802.91,847.05,783.9z"/>
			<path class="st1" d="M800.18,576.7c0.16,0.22,0.34,0.45,0.52,0.7C800.52,577.15,800.35,576.92,800.18,576.7z"/>
			<path class="st1" d="M831.77,730.39c-0.1,0.49-0.22,0.99-0.33,1.48C831.55,731.38,831.67,730.89,831.77,730.39z"/>
			<path class="st1" d="M823.48,620.64c0.05,0.13,0.09,0.26,0.14,0.38C823.58,620.9,823.53,620.77,823.48,620.64z"/>
			<path class="st1" d="M830.71,735.15c-0.14,0.6-0.29,1.21-0.44,1.82C830.42,736.36,830.57,735.75,830.71,735.15z"/>
			<path class="st1" d="M802.63,580.12c0.13,0.18,0.26,0.38,0.39,0.57C802.89,580.51,802.76,580.31,802.63,580.12z"/>
			<path class="st6" d="M817.74,606.9c0.31,0.67,0.62,1.34,0.92,2.03C818.36,608.24,818.05,607.57,817.74,606.9z"/>
			<polygon class="st6" points="800.18,576.69 800.17,576.69 800.18,576.7 			"/>
			<path class="st6" d="M802.41,579.81c0.07,0.11,0.14,0.21,0.22,0.32C802.56,580.01,802.49,579.91,802.41,579.81z"/>
			<path class="st6" d="M820.04,612.06c1.17,2.73,2.32,5.59,3.44,8.58C822.36,617.65,821.21,614.79,820.04,612.06z"/>
			<path class="st6" d="M818.89,609.44c0.35,0.79,0.7,1.59,1.05,2.4C819.59,611.03,819.24,610.23,818.89,609.44z"/>
			<path class="st6" d="M800.7,577.4c0.01,0.01,0.01,0.02,0.02,0.03C800.71,577.42,800.71,577.41,800.7,577.4z"/>
			<path class="st6" d="M806.47,585.97c0.21,0.33,0.42,0.67,0.63,1.02C806.89,586.64,806.67,586.3,806.47,585.97z"/>
			<path class="st6" d="M805.53,584.49c0.19,0.3,0.38,0.6,0.58,0.9C805.91,585.09,805.72,584.79,805.53,584.49z"/>
			<path class="st6" d="M809.49,591c0.73,1.25,1.47,2.57,2.23,3.95C810.96,593.56,810.22,592.25,809.49,591z"/>
			<path class="st6" d="M804.64,583.11c0.17,0.26,0.34,0.53,0.52,0.8C804.98,583.64,804.81,583.38,804.64,583.11z"/>
			<path class="st6" d="M808.45,589.23c0.29,0.48,0.58,0.97,0.87,1.47C809.03,590.2,808.74,589.71,808.45,589.23z"/>
			<path class="st6" d="M807.45,587.56c0.23,0.38,0.47,0.77,0.71,1.17C807.92,588.33,807.68,587.94,807.45,587.56z"/>
			<path class="st6" d="M811.74,594.98c0.36,0.66,0.73,1.34,1.09,2.03C812.47,596.32,812.1,595.64,811.74,594.98z"/>
			<path class="st6" d="M803.8,581.85c0.15,0.23,0.31,0.46,0.47,0.7C804.11,582.31,803.95,582.08,803.8,581.85z"/>
			<path class="st6" d="M813.04,597.4c0.31,0.58,0.62,1.17,0.93,1.77C813.66,598.57,813.35,597.98,813.04,597.4z"/>
			<path class="st6" d="M803.02,580.7c0.13,0.19,0.26,0.38,0.4,0.58C803.28,581.08,803.15,580.89,803.02,580.7z"/>
			<path class="st6" d="M815.42,602.05c0.28,0.58,0.57,1.16,0.86,1.75C815.99,603.21,815.7,602.62,815.42,602.05z"/>
			<path class="st6" d="M814.24,599.71c0.29,0.56,0.58,1.14,0.87,1.72C814.82,600.84,814.53,600.27,814.24,599.71z"/>
			<path class="st6" d="M816.58,604.44c0.29,0.61,0.58,1.22,0.87,1.85C817.16,605.66,816.87,605.04,816.58,604.44z"/>
			<path class="st6" d="M820.65,766.92c-0.68,1.69-1.38,3.39-2.11,5.1C819.27,770.31,819.97,768.61,820.65,766.92z"/>
			<path class="st6" d="M827.6,746.87c-0.28,0.96-0.58,1.93-0.88,2.89C827.03,748.8,827.32,747.83,827.6,746.87z"/>
			<path class="st6" d="M830.27,736.97c-0.24,1-0.49,1.99-0.75,3C829.78,738.96,830.03,737.96,830.27,736.97z"/>
			<path class="st6" d="M831.45,731.88c-0.24,1.09-0.48,2.18-0.73,3.28C830.97,734.05,831.21,732.97,831.45,731.88z"/>
			<path class="st6" d="M829,741.93c-0.26,0.97-0.53,1.93-0.8,2.9C828.47,743.86,828.74,742.89,829,741.93z"/>
			<path class="st6" d="M832.67,725.85c-0.28,1.51-0.58,3.02-0.9,4.54C832.09,728.87,832.39,727.36,832.67,725.85z"/>
			<path class="st6" d="M834.78,711.79c-0.11,1-0.24,2.01-0.37,3.02C834.54,713.8,834.67,712.79,834.78,711.79z"/>
			<path class="st6" d="M835.25,707.26c-0.09,0.95-0.18,1.9-0.28,2.85C835.06,709.16,835.16,708.21,835.25,707.26z"/>
			<path class="st6" d="M833.52,720.97c-0.25,1.56-0.52,3.14-0.82,4.72C833,724.11,833.27,722.54,833.52,720.97z"/>
			<path class="st6" d="M834.21,716.36c-0.16,1.15-0.33,2.31-0.51,3.47C833.88,718.67,834.05,717.51,834.21,716.36z"/>
			<path class="st6" d="M824.41,756.83c-0.35,1.02-0.72,2.04-1.1,3.07C823.69,758.87,824.06,757.85,824.41,756.83z"/>
			<path class="st6" d="M815.57,777.19c0.03-0.03,0.07-0.06,0.1-0.1C815.64,777.13,815.61,777.16,815.57,777.19z"/>
			<path class="st6" d="M817,776.04c-0.02,0.02-0.04,0.03-0.06,0.05C816.96,776.07,816.98,776.06,817,776.04
				C817,776.04,817,776.04,817,776.04z"/>
			<path class="st6" d="M816.25,776.59C816.25,776.59,816.25,776.59,816.25,776.59C816.25,776.59,816.25,776.59,816.25,776.59z"/>
			<path class="st7" d="M537.07,415.7c0,0,112.28,16.04,138.83,1.07c14.82-8.36,31.91-9.94,44.13-9.7
				c-5.07-59.04-54.59-105.37-114.94-105.37c-61.76,0-112.16,48.52-115.22,109.52C516.25,407.07,537.07,415.7,537.07,415.7z"/>
			<path class="st6" d="M835.6,702.77c-0.06,0.93-0.13,1.86-0.21,2.8C835.47,704.63,835.54,703.7,835.6,702.77z"/>
			<path class="st6" d="M826.08,751.84c-0.31,0.98-0.64,1.96-0.97,2.94C825.44,753.79,825.76,752.81,826.08,751.84z"/>
			<path class="st6" d="M815.05,777.74c0.03-0.03,0.05-0.06,0.08-0.09C815.1,777.68,815.08,777.7,815.05,777.74z"/>
			<path class="st6" d="M822.6,761.85c-0.42,1.13-0.86,2.26-1.31,3.39C821.74,764.11,822.18,762.98,822.6,761.85z"/>
			<path class="st6" d="M823.62,621.03c0.31,0.85,0.63,1.7,0.94,2.57C824.25,622.73,823.94,621.87,823.62,621.03z"/>
			<path class="st6" d="M829.78,640.56c0.9,3.47,1.73,7.06,2.47,10.75C831.51,647.61,830.68,644.03,829.78,640.56z"/>
			<path class="st6" d="M833.12,655.92c0.16,0.91,0.32,1.83,0.47,2.76C833.43,657.75,833.28,656.84,833.12,655.92z"/>
			<path class="st6" d="M832.37,651.93c0.2,1,0.39,2.01,0.58,3.03C832.76,653.94,832.57,652.93,832.37,651.93z"/>
			<path class="st6" d="M827.92,633.88c0.25,0.84,0.5,1.69,0.74,2.55C828.41,635.57,828.17,634.72,827.92,633.88z"/>
			<path class="st6" d="M828.87,637.19c0.26,0.95,0.52,1.91,0.78,2.88C829.4,639.1,829.14,638.14,828.87,637.19z"/>
			<path class="st6" d="M824.79,624.26c0.28,0.79,0.55,1.58,0.83,2.38C825.35,625.84,825.07,625.04,824.79,624.26z"/>
			<path class="st6" d="M825.88,627.43c0.26,0.78,0.52,1.56,0.77,2.35C826.4,628.99,826.14,628.21,825.88,627.43z"/>
			<path class="st6" d="M826.92,630.63c0.25,0.79,0.5,1.6,0.74,2.41C827.42,632.23,827.17,631.43,826.92,630.63z"/>
			<path class="st6" d="M835.22,671.6c0.09,1,0.18,2.01,0.25,3.03C835.4,673.61,835.32,672.6,835.22,671.6z"/>
			<path class="st6" d="M835.56,675.62c0.09,1.23,0.17,2.48,0.23,3.73C835.72,678.1,835.65,676.86,835.56,675.62z"/>
			<path class="st6" d="M836.05,689.21c0,1.06,0,2.13-0.02,3.2C836.05,691.34,836.05,690.28,836.05,689.21z"/>
			<path class="st6" d="M835.81,679.7c0.14,2.78,0.22,5.61,0.24,8.47C836.03,685.3,835.95,682.48,835.81,679.7z"/>
			<path class="st6" d="M836,693.82c-0.02,0.97-0.05,1.94-0.08,2.91C835.96,695.75,835.98,694.78,836,693.82z"/>
			<path class="st6" d="M834.81,667.63c0.1,0.92,0.2,1.85,0.29,2.78C835.01,669.48,834.92,668.56,834.81,667.63z"/>
			<path class="st6" d="M835.85,698.3c-0.04,0.93-0.09,1.87-0.15,2.82C835.76,700.17,835.81,699.23,835.85,698.3z"/>
			<path class="st6" d="M834.32,663.71c0.12,0.89,0.23,1.78,0.34,2.68C834.56,665.49,834.44,664.6,834.32,663.71z"/>
			<path class="st6" d="M833.76,659.82c0.14,0.88,0.27,1.77,0.4,2.67C834.03,661.59,833.9,660.71,833.76,659.82z"/>
			<path class="st6" d="M432.28,470.6c-19.96,51.92,7.49,125.35,7.49,125.35s-16.04,64.51,31.72,142.57
				c47.76,78.06,179.29,93.39,229.9,84.12c50.22-9.2,105.7-31.37,115.61-45.99c-0.02,0.01-0.04,0.03-0.06,0.04
				c-0.24,0.17-0.47,0.33-0.68,0.5c0,0-0.01,0.01-0.01,0.01c-0.21,0.17-0.39,0.33-0.57,0.5c-0.03,0.03-0.07,0.06-0.1,0.1
				c-0.16,0.16-0.31,0.31-0.44,0.45c-0.03,0.03-0.06,0.06-0.08,0.09c-0.13,0.15-0.25,0.29-0.36,0.42c-0.3,0.46-0.53,0.81-0.67,0.99
				c0,0,0.21-0.41,0.67-0.99c1.32-2.03,3.85-6.14,3.85-6.14c0.73-1.71,1.43-3.41,2.11-5.1c0.22-0.56,0.43-1.11,0.65-1.67
				c0.44-1.13,0.89-2.27,1.31-3.39c0.24-0.66,0.48-1.31,0.71-1.96c0.37-1.02,0.74-2.05,1.1-3.07c0.24-0.69,0.47-1.37,0.7-2.05
				c0.33-0.98,0.66-1.96,0.97-2.94c0.22-0.69,0.44-1.38,0.65-2.07c0.3-0.97,0.59-1.93,0.88-2.89c0.2-0.68,0.4-1.36,0.59-2.04
				c0.28-0.97,0.54-1.94,0.8-2.9c0.18-0.66,0.35-1.31,0.52-1.97c0.26-1,0.51-2,0.75-3c0.15-0.61,0.3-1.21,0.44-1.82
				c0.26-1.1,0.5-2.19,0.73-3.28c0.11-0.49,0.22-0.99,0.33-1.48c0.32-1.52,0.62-3.04,0.9-4.54c0.01-0.05,0.02-0.11,0.03-0.16
				c0.29-1.58,0.56-3.16,0.82-4.72c0.06-0.38,0.11-0.76,0.17-1.14c0.18-1.16,0.36-2.32,0.51-3.47c0.07-0.52,0.13-1.03,0.2-1.55
				c0.13-1.01,0.26-2.02,0.37-3.02c0.06-0.56,0.12-1.12,0.18-1.67c0.1-0.95,0.2-1.91,0.28-2.85c0.05-0.57,0.1-1.13,0.15-1.7
				c0.08-0.94,0.15-1.87,0.21-2.8c0.04-0.55,0.07-1.1,0.11-1.65c0.06-0.94,0.1-1.88,0.15-2.82c0.02-0.52,0.05-1.05,0.07-1.57
				c0.04-0.98,0.06-1.95,0.08-2.91c0.01-0.47,0.02-0.93,0.03-1.4c0.02-1.07,0.02-2.14,0.02-3.2c0-0.35,0-0.7,0-1.04
				c-0.02-2.87-0.1-5.69-0.24-8.47c-0.01-0.12-0.01-0.23-0.02-0.34c-0.07-1.25-0.14-2.5-0.23-3.73c-0.02-0.33-0.05-0.66-0.08-1
				c-0.08-1.01-0.16-2.02-0.25-3.03c-0.04-0.4-0.08-0.79-0.12-1.18c-0.09-0.93-0.19-1.86-0.29-2.78c-0.05-0.41-0.1-0.83-0.15-1.24
				c-0.11-0.9-0.22-1.79-0.34-2.68c-0.06-0.41-0.11-0.82-0.17-1.22c-0.13-0.89-0.26-1.78-0.4-2.67c-0.06-0.38-0.12-0.76-0.18-1.14
				c-0.15-0.93-0.31-1.84-0.47-2.76c-0.06-0.32-0.11-0.64-0.17-0.96c-0.18-1.02-0.38-2.03-0.58-3.03c-0.04-0.2-0.08-0.41-0.12-0.62
				c-0.74-3.7-1.57-7.28-2.47-10.75c-0.04-0.17-0.09-0.33-0.13-0.49c-0.25-0.97-0.51-1.93-0.78-2.88c-0.07-0.25-0.14-0.5-0.21-0.76
				c-0.24-0.86-0.49-1.71-0.74-2.55c-0.08-0.28-0.17-0.56-0.25-0.84c-0.24-0.81-0.49-1.61-0.74-2.41c-0.09-0.28-0.18-0.57-0.27-0.85
				c-0.25-0.79-0.51-1.57-0.77-2.35c-0.09-0.26-0.18-0.53-0.27-0.79c-0.27-0.8-0.55-1.6-0.83-2.38c-0.08-0.22-0.16-0.44-0.23-0.66
				c-0.31-0.87-0.62-1.72-0.94-2.57c-0.05-0.13-0.09-0.26-0.14-0.38c-1.12-2.99-2.27-5.85-3.44-8.58c-0.03-0.07-0.06-0.15-0.1-0.22
				c-0.35-0.81-0.7-1.61-1.05-2.4c-0.08-0.17-0.15-0.34-0.23-0.51c-0.31-0.69-0.61-1.36-0.92-2.03c-0.1-0.21-0.19-0.41-0.29-0.62
				c-0.29-0.62-0.58-1.24-0.87-1.85c-0.1-0.21-0.2-0.43-0.31-0.64c-0.29-0.59-0.57-1.17-0.86-1.75c-0.1-0.21-0.21-0.42-0.31-0.62
				c-0.29-0.58-0.58-1.15-0.87-1.72c-0.09-0.18-0.18-0.36-0.28-0.54c-0.31-0.6-0.62-1.19-0.93-1.77c-0.07-0.13-0.14-0.26-0.2-0.39
				c-0.37-0.69-0.73-1.37-1.09-2.03c-0.01-0.01-0.01-0.03-0.02-0.04c-0.76-1.38-1.5-2.7-2.23-3.95c-0.06-0.1-0.11-0.2-0.17-0.29
				c-0.29-0.5-0.58-0.99-0.87-1.47c-0.1-0.17-0.2-0.33-0.3-0.5c-0.24-0.4-0.47-0.79-0.71-1.17c-0.12-0.19-0.23-0.38-0.35-0.57
				c-0.21-0.35-0.42-0.69-0.63-1.02c-0.12-0.19-0.24-0.38-0.36-0.57c-0.19-0.31-0.39-0.61-0.58-0.9c-0.12-0.2-0.25-0.39-0.37-0.58
				c-0.18-0.27-0.35-0.54-0.52-0.8c-0.13-0.19-0.25-0.38-0.37-0.57c-0.16-0.24-0.31-0.47-0.47-0.7c-0.13-0.19-0.26-0.39-0.38-0.57
				c-0.14-0.2-0.26-0.39-0.4-0.58c-0.13-0.19-0.27-0.39-0.39-0.57c-0.08-0.11-0.15-0.21-0.22-0.32c-0.62-0.9-1.19-1.7-1.69-2.38
				c-0.01-0.01-0.01-0.02-0.02-0.03c-0.18-0.25-0.36-0.48-0.52-0.7c0,0,0-0.01-0.01-0.01l-11.46-5.94c0,0,18.53-42.77,1.07-91.6
				s-51.79-67.02-69.38-65.94c0,0,0,0,0,0c-0.07-2.06-0.19-4.1-0.37-6.13c-12.22-0.23-29.31,1.35-44.13,9.7
				c-26.55,14.97-138.83-1.07-138.83-1.07s-20.82-8.64-47.2-4.49c-0.07,1.37-0.12,2.74-0.14,4.13
				C480.78,417.58,449.29,426.36,432.28,470.6z"/>
		</g>
		<path class="st6" d="M814.69,778.16c-0.46,0.58-0.67,0.99-0.67,0.99C814.15,778.97,814.39,778.62,814.69,778.16z"/>
	</g>
	<path class="st8" d="M596.66,395.86c6.13,6.13,9.92,14.59,9.92,23.94c0,18.7-15.16,33.86-33.86,33.86
		c-18.7,0-33.86-15.16-33.86-33.86c0-9.44,3.86-17.98,10.1-24.12"/>
	<g>
		<g>
			<path class="st9" d="M821.95,792.45c11.1,6.83,37.06,13.42,51.6,16.76c-3.84-6.77-11.54-14.34-26.49-25.31
				c-17.05-12.51-25.95-10.61-30.05-7.86c-2.26,3.34-6.91,7.07-13.32,10.95C808.03,786.75,814.25,787.71,821.95,792.45z"/>
		</g>
	</g>
	<path class="st2" d="M519.96,781.05c0,0,69.5-3.56,84.12,60.24c0,0-19.25,30.07-117.62-1.72c0,0-52.04,7.06-78.06-25.37"/>
	<g>
		<path class="st3" d="M595.53,297.71c-2.49,0-4.5-2.01-4.5-4.5c0-4.66-1.23-11.88-1.24-11.95c-0.42-2.45,1.22-4.78,3.67-5.2
			c2.45-0.42,4.78,1.22,5.2,3.67c0.06,0.33,1.37,8.04,1.37,13.48C600.03,295.69,598.01,297.71,595.53,297.71z"/>
	</g>
	<g>
		<path class="st3" d="M612.04,299.25c-2.31,0-4.28-1.77-4.48-4.12c-0.27-3.12-2.07-10.85-2.74-13.56c-0.6-2.41,0.88-4.85,3.29-5.45
			c2.41-0.59,4.85,0.88,5.45,3.29c0.26,1.07,2.59,10.57,2.97,14.95c0.21,2.48-1.62,4.66-4.1,4.87
			C612.3,299.24,612.17,299.25,612.04,299.25z"/>
	</g>
	<g>
		<path class="st3" d="M627.72,299.85c-2.2,0-4.12-1.61-4.45-3.85l-1.78-12.24c-0.36-2.46,1.35-4.74,3.8-5.1
			c2.46-0.35,4.74,1.35,5.1,3.8l1.78,12.24c0.36,2.46-1.35,4.74-3.8,5.1C628.15,299.83,627.94,299.85,627.72,299.85z"/>
	</g>
	<g>
		<path class="st9" d="M520.28,781.04c0.03,0,0.06,0,0.1,0C520.34,781.03,520.31,781.03,520.28,781.04z"/>
		<path class="st9" d="M520.96,781.02c0.04,0,0.08,0,0.13,0C521.04,781.02,521,781.02,520.96,781.02z"/>
		<path class="st9" d="M523.3,781.02c0.04,0,0.09,0,0.13,0C523.39,781.03,523.34,781.03,523.3,781.02z"/>
		<path class="st9" d="M521.41,781.01c0.05,0,0.1,0,0.15,0C521.51,781.01,521.46,781.01,521.41,781.01z"/>
		<path class="st9" d="M521.97,781.01c0.05,0,0.1,0,0.14,0C522.06,781.01,522.02,781.01,521.97,781.01z"/>
		<path class="st9" d="M520.59,781.03c0.03,0,0.06,0,0.09,0C520.65,781.03,520.62,781.03,520.59,781.03z"/>
		<path class="st9" d="M522.6,781.02c0.05,0,0.09,0,0.14,0C522.69,781.02,522.64,781.02,522.6,781.02z"/>
		<path class="st9" d="M524.07,781.04c0.04,0,0.08,0,0.12,0C524.15,781.04,524.11,781.04,524.07,781.04z"/>
		<path class="st9" d="M519.96,781.05c0,0,0.07,0,0.18-0.01C520.03,781.04,519.96,781.05,519.96,781.05z"/>
		<path class="st9" d="M526.8,781.16c0,0,0.01,0,0.01,0C526.81,781.16,526.8,781.16,526.8,781.16z"/>
		<path class="st10" d="M515.5,789.38c0.53,0.76,1.12,1.45,1.79,2.01c10.51,8.91,24.59,15.86,38.5,20.67
			c8.25,2.86,17.69,4.65,25.86,7.54c-19.64-18.62-44.62-25.75-57.05-28.09C521.2,790.86,518.18,790.13,515.5,789.38z"/>
		<path class="st9" d="M524.91,781.07c0.04,0,0.08,0,0.12,0C524.99,781.07,524.95,781.07,524.91,781.07z"/>
		<path class="st9" d="M525.83,781.11c0.02,0,0.04,0,0.06,0C525.87,781.11,525.85,781.11,525.83,781.11z"/>
		<path class="st9" d="M511.82,780.23c0.17,0.73,0.44,1.79,0.82,2.99l7.32-2.18L511.82,780.23z"/>
		<path class="st9" d="M520.68,781.02c0.08,0,0.18,0,0.28-0.01C520.86,781.02,520.77,781.02,520.68,781.02z"/>
		<path class="st9" d="M504.82,785.55c2.51,1.13,6.06,2.52,10.69,3.83c-1.32-1.89-2.24-4.2-2.86-6.15L504.82,785.55z"/>
		<path class="st9" d="M520.15,781.04c0.04,0,0.09,0,0.13,0C520.23,781.04,520.18,781.04,520.15,781.04z"/>
		<path class="st9" d="M520.38,781.03c0.06,0,0.14,0,0.21-0.01C520.51,781.03,520.44,781.03,520.38,781.03z"/>
		<path class="st9" d="M524.2,781.05c0.23,0.01,0.47,0.01,0.71,0.02C524.66,781.06,524.42,781.05,524.2,781.05z"/>
		<path class="st9" d="M525.89,781.11c0.29,0.01,0.6,0.03,0.91,0.05C526.49,781.14,526.18,781.12,525.89,781.11z"/>
		<path class="st9" d="M523.43,781.03c0.21,0,0.42,0.01,0.64,0.02C523.85,781.04,523.64,781.03,523.43,781.03z"/>
		<path class="st9" d="M525.03,781.07c0.26,0.01,0.52,0.02,0.8,0.03C525.55,781.09,525.29,781.08,525.03,781.07z"/>
		<path class="st1" d="M526.81,781.16c16.74,0.95,59.44,7.67,74.54,50.69c-1.75-0.89-3.6-2.2-5.47-4.11
			c-3.62-3.69-8.64-6.17-14.24-8.15c6.27,5.95,12.01,13.06,16.61,21.57c0.76,1.4,1.49,2.59,2.22,3.63c2.62-1.99,3.6-3.52,3.6-3.52
			C592.28,789.77,544.7,782.17,526.81,781.16z"/>
		<path class="st9" d="M521.09,781.02c0.1,0,0.21,0,0.32,0C521.3,781.02,521.19,781.02,521.09,781.02z"/>
		<path class="st9" d="M521.57,781.01c0.13,0,0.26,0,0.4,0C521.83,781.01,521.69,781.01,521.57,781.01z"/>
		<path class="st9" d="M522.11,781.01c0.15,0,0.31,0,0.48,0C522.43,781.01,522.27,781.01,522.11,781.01z"/>
		<path class="st9" d="M522.74,781.02c0.18,0,0.37,0,0.56,0.01C523.11,781.02,522.92,781.02,522.74,781.02z"/>
		<path class="st9" d="M601.36,831.85c-15.1-43.02-57.81-49.74-74.54-50.69c0,0-0.01,0-0.01,0c-0.31-0.02-0.62-0.03-0.91-0.05
			c-0.02,0-0.04,0-0.06,0c-0.28-0.01-0.54-0.02-0.8-0.03c-0.04,0-0.08,0-0.12,0c-0.24-0.01-0.48-0.02-0.71-0.02
			c-0.04,0-0.08,0-0.12,0c-0.22-0.01-0.44-0.01-0.64-0.02c-0.04,0-0.09,0-0.13,0c-0.2,0-0.38-0.01-0.56-0.01c-0.05,0-0.1,0-0.14,0
			c-0.17,0-0.33,0-0.48,0c-0.05,0-0.1,0-0.14,0c-0.14,0-0.28,0-0.4,0c-0.05,0-0.1,0-0.15,0c-0.11,0-0.22,0-0.32,0
			c-0.04,0-0.08,0-0.13,0c-0.1,0-0.19,0-0.28,0.01c-0.03,0-0.06,0-0.09,0c-0.07,0-0.15,0-0.21,0.01c-0.04,0-0.07,0-0.1,0
			c-0.05,0-0.1,0-0.13,0c-0.12,0-0.18,0.01-0.18,0.01l-7.32,2.18c0.62,1.95,1.54,4.27,2.86,6.15c2.67,0.76,5.7,1.49,9.09,2.13
			c12.43,2.34,37.41,9.47,57.05,28.09c5.6,1.97,10.61,4.45,14.24,8.15C597.76,829.65,599.61,830.96,601.36,831.85z"/>
	</g>
	<path d="M562.45,858.68c-20.7,0-46.29-4.86-76.44-14.53c-7.89,0.87-55.6,4.68-81.13-27.14c-1.56-1.94-1.24-4.77,0.69-6.33
		c1.94-1.56,4.77-1.24,6.33,0.69c24.09,30.03,73.45,23.79,73.95,23.73c0.67-0.09,1.35-0.03,1.99,0.18
		c80.45,26,105.9,9.65,111.3,4.74c-6.05-23.56-20.81-39.86-43.88-48.47c-18.14-6.76-34.91-6.03-35.07-6.02
		c-2.46,0.12-4.59-1.79-4.72-4.27c-0.12-2.48,1.78-4.59,4.26-4.72c0.75-0.04,18.53-0.85,38.37,6.47
		c18.56,6.85,42.37,22.34,50.37,57.26c0.27,1.18,0.05,2.41-0.6,3.43c-0.6,0.93-6.37,9.22-24.8,13.04
		C576.86,858.04,569.98,858.68,562.45,858.68z"/>
	<path class="st8" d="M665.38,395.27c6.48,6.17,10.52,14.88,10.52,24.53c0,18.7-15.16,33.86-33.86,33.86
		c-18.7,0-33.86-15.16-33.86-33.86c0-9.44,3.86-17.98,10.1-24.12"/>
	<polygon class="st2" points="413.15,742.55 387.49,810.04 411.73,805.29 440.95,810.04 506.24,823.82 459.49,742.55 	"/>
	<g>
		<path class="st2" d="M393.67,606.63c0,0-17.11,40.87,1.9,80.32c19.01,39.45,29.94,27.84,41.82,7.03
			c11.88-20.81,15.21-41.72,13.31-62.16"/>
	</g>
	<line class="st11" x1="546.7" y1="394.98" x2="597.35" y2="394.98"/>
	<line class="st11" x1="613.94" y1="394.98" x2="667.17" y2="394.36"/>
	<path class="st12" d="M563.33,470l3.26-5.53c1.37-2.32,3.85-3.76,6.54-3.8l69.48-1.08c2.02-0.03,4.02,0.47,5.76,1.5
		c2.95,1.73,6.89,4.85,6.44,8.92"/>
	<rect x="572.72" y="462.04" class="st8" width="33.86" height="22.81"/>
	<rect x="606.58" y="461.32" class="st8" width="33.98" height="43.13"/>
	<g>
		<path d="M664.38,844.11c-18.03,0-38.03-1.23-59.53-4.44c-2.46-0.37-4.15-2.66-3.79-5.11s2.66-4.15,5.11-3.79
			c88.62,13.2,152.63-8.49,153.27-8.71c0.93-0.32,1.95-0.33,2.89-0.02c63.33,20.91,101.29,4.07,110.22-0.76
			c-0.49-8.36-4.29-16.24-28.16-33.76c-12.43-9.12-19.31-9.43-22.31-8.8c-2.07,0.43-3.22,1.47-3.75,2.08
			c-0.3,0.46-0.55,0.83-0.71,1.04c-1.4,1.86-3.99,2.35-5.97,1.13c-1.98-1.22-2.7-3.76-1.66-5.84c0.09-0.17,0.41-0.78,1.02-1.58
			c0.82-1.26,2.25-3.56,3.52-5.61c24.52-57.6,17.94-106.82,8.09-137.99c-10.73-33.98-27.58-54.56-27.75-54.76
			c-0.89-1.08-1.24-2.52-0.92-3.89c13.31-57.64,7.91-103.88-15.63-133.74c-17.67-22.41-39.63-27.99-39.85-28.05
			c-1.74-0.43-3.07-1.85-3.38-3.61c-12.3-71.78-71.72-107.01-72.32-107.36c-2.12-1.23-2.87-3.94-1.68-6.08
			c3.98-7.17,12.86-63.24,2.71-81.08c-2.09-3.67-4.24-4.15-5.67-4.19c-14.02-0.44-24.02,43.13-26.63,74.18
			c-0.12,1.47-0.96,2.78-2.23,3.52c-1.27,0.74-2.83,0.81-4.16,0.18c-12.95-6.05-32.18-4.37-32.38-4.35
			c-1.4,0.13-2.79-0.41-3.74-1.45s-1.36-2.47-1.1-3.85c2.8-15.03-3.06-58.77-16.18-72.05c-3.59-3.63-6.26-3.17-7.14-3.01
			c-4.86,0.84-10.42,12.32-11.45,41.99c-0.75,21.45,1.18,42.78,1.2,42.99c0.21,2.31-1.36,4.4-3.64,4.83
			c-66.28,12.68-100.22,97.13-100.55,97.98c-0.43,1.1-1.27,1.98-2.35,2.46c-38.05,17.04-60.96,50.69-68.1,100.02
			c-5.4,37.33,0.76,70.06,0.82,70.39c0.13,0.7,0.1,1.42-0.1,2.11c-15.67,54-12.6,101-7.26,130.91
			c5.79,32.48,15.44,52.43,15.54,52.63c1.09,2.23,0.17,4.93-2.06,6.02c-2.23,1.09-4.92,0.17-6.02-2.06
			c-0.41-0.84-10.21-21.03-16.25-54.65c-5.53-30.75-8.75-78.94,7.12-134.33c-1.08-6.16-5.81-36.68-0.73-72.05
			c7.36-51.27,32.14-88.03,71.72-106.44c2.4-5.68,10.87-24.48,25.72-44.69c22.25-30.3,48.75-49.68,76.86-56.28
			c-0.53-7.27-1.48-23.42-0.91-40.06c1.11-32.04,7.29-48.59,18.91-50.61c3.73-0.65,9.38-0.21,15.08,5.56
			c14,14.17,20.59,54.16,19.28,74.45c6.11-0.1,16.36,0.27,25.74,3.2c0.85-7.4,2.66-20.73,5.9-34.17
			c6.95-28.85,16.51-42.69,29.35-42.33c3.83,0.11,9.24,1.72,13.24,8.74c11.05,19.42,3.91,69.73-1.09,85.87
			c5.54,3.65,17.4,12.2,30.23,25.96c15.57,16.72,35.44,44.53,42.7,82.86c7.07,2.34,25.67,10.02,41.55,29.9
			c11.44,14.33,19.08,32.06,22.7,52.69c4.37,24.92,2.85,54.18-4.51,87c4.44,5.83,18.3,25.51,27.88,55.63
			c10.17,31.98,17.09,82.06-6.63,140.66c7.14,0.07,15.61,3.67,25.26,10.76c27.12,19.91,31.9,29.9,31.9,43.55
			c0,1.5-0.74,2.89-1.98,3.73c-1.72,1.16-42.83,28.06-118.71,3.5C753.2,833.54,717.22,844.11,664.38,844.11z"/>
	</g>
	<circle cx="572.72" cy="420.33" r="10.99"/>
	<circle cx="642.04" cy="420.33" r="10.99"/>
	<path class="st6" d="M439.77,595.34l14.89,18.16C455.41,594.05,439.77,595.34,439.77,595.34z"/>
	<g>
		<path class="st6" d="M454.66,613.5l-14.89-18.16c0,0-4.45,4.42-9.59,14.99c0.03,0.03,0.06,0.06,0.09,0.1
			c0,0,3.78,67.78-14.96,99.72c0.04,0.81,0.08,1.61,0.13,2.42v0c8.23,2.8,14.93-6.29,21.96-18.6
			c11.88-20.81,15.21-41.72,13.31-62.16C453.31,624.26,454.47,618.26,454.66,613.5z"/>
		<path class="st10" d="M430.26,610.43c-0.03-0.03-0.06-0.06-0.09-0.1c-1.45,2.98-2.96,6.46-4.43,10.46
			c-6.62,17.95-12.63,46.56-10.44,89.36C434.04,678.21,430.26,610.43,430.26,610.43z"/>
	</g>
	<g>
		<path d="M418.41,717.59c-0.15,0-0.31,0-0.46-0.01c-8.87-0.31-17.02-9.16-26.44-28.68c-19.66-40.8-2.73-82.26-2-84.01
			c0.96-2.29,3.59-3.37,5.89-2.41c2.29,0.96,3.37,3.59,2.41,5.89c-0.21,0.51-16.04,39.62,1.8,76.63
			c9.79,20.31,15.88,23.5,18.64,23.59c4.86,0.21,10.69-8.91,15.22-16.84c10.57-18.52,14.74-37.98,12.73-59.51
			c-0.23-2.47,1.59-4.67,4.06-4.9c2.48-0.24,4.67,1.59,4.9,4.06c2.15,23.11-2.52,44.91-13.88,64.81
			C435.38,706.57,428.25,717.59,418.41,717.59z"/>
	</g>
</g>
</svg>
